<svg viewBox="0 0 218 199" fill="none" xmlns="http://www.w3.org/2000/svg">
<path d="M69.3772 0.166168C82.1867 -1.71168 95.7562 12.5379 99.6642 32.2001C103.572 51.7518 96.5161 69.2048 83.7065 71.1931C71.0055 73.1814 57.3275 58.9318 53.3109 39.2696C49.2943 19.7179 56.5676 2.26494 69.3772 0.166168ZM146.995 0.166168C159.913 2.26494 167.077 19.7179 163.278 39.2696C159.153 58.9318 145.583 73.1814 132.774 71.1931C119.856 69.2048 112.799 51.7518 116.816 32.2001C120.724 12.5379 134.293 -1.71168 146.995 0.166168ZM11.2998 50.9786C23.6752 45.5659 40.5013 55.397 49.2943 72.5186C57.5446 89.9716 54.7221 108.308 42.4553 113.721C30.1885 119.133 13.4709 109.413 4.89502 92.0703C-3.68089 74.7278 -0.641326 56.2807 11.2998 50.9786ZM206.7 50.9786C218.641 56.2807 221.681 74.7278 213.105 92.0703C204.529 109.413 187.811 119.133 175.545 113.721C163.278 108.308 160.455 89.9716 168.706 72.5186C177.499 55.397 194.325 45.5659 206.7 50.9786ZM188.571 170.056C189.006 180.44 181.19 191.928 171.854 196.236C152.422 205.294 129.408 186.515 107.806 186.515C86.2033 186.515 62.9724 206.067 43.8665 196.236C33.011 190.823 25.5206 176.463 26.9318 164.533C28.8858 148.074 48.3173 139.238 59.8242 127.197C75.1306 111.622 85.9862 82.3497 107.806 82.3497C129.517 82.3497 141.024 111.18 155.679 127.197C167.729 140.674 187.811 152.051 188.571 170.056Z" fill="#B88E2F"/>
</svg>
